# xmcd
#
# Track frame offsets:
#	150
#	5270
#	25935
#	48450
#	73250
#	100625
#	126170
#	141200
#	153620
#	169520
#	188935
#
# Disc length: 2676 seconds
#
# Revision: 1
# Processed by: cddbd v1.5.1PL0 Copyright (c) Steve Scherf et al.
# Submitted via: EasyCDDAExtractor 8.0.2.1
#
DISCID=910a720b
DTITLE=Ozzy Osbourne - Markthalle Hamburg 22-01-83
DYEAR=1983
DGENRE=Hard Rock
TTITLE0=Intro
TTITLE1=I Don't Know
TTITLE2=Mr Crowley
TTITLE3=Crazy Train
TTITLE4=Suicide Solution
TTITLE5=Revelation (Mother Earth)
TTITLE6=Steal Away (The Night)
TTITLE7=Drum Solo
TTITLE8=Iron Man
TTITLE9=Children Of The Grave
TTITLE10=Paranoid
EXTD=
EXTT0=
EXTT1=
EXTT2=
EXTT3=
EXTT4=
EXTT5=
EXTT6=
EXTT7=
EXTT8=
EXTT9=
EXTT10=
PLAYORDER=
